<svg class="h-6" viewBox="0 0 182 40" fill="none" xmlns="http://www.w3.org/2000/svg"><mask id="mask0_1_52" style="mask-type:luminance" maskUnits="userSpaceOnUse" x="0" y="0" width="182" height="40"><path d="M181.074 0H0V40H181.074V0Z" fill="white"></path></mask><g mask="url(#mask0_1_52)"><path d="M51.4677 5.10143H59.5634L66.4309 21.8475H66.7478L73.6153 5.10143H81.711V32.1488H75.3454V15.5347H75.1209L68.6232 31.9771H64.5555L58.0578 15.4423H57.8334V32.1488H51.4677V5.10143ZM84.3008 32.1488V11.8632H90.7595V32.1488H84.3008ZM87.5363 9.49926C86.6297 9.49926 85.8504 9.19992 85.1991 8.60124C84.5479 7.99369 84.2215 7.26292 84.2215 6.40889C84.2215 5.56366 84.5479 4.84169 85.1991 4.24299C85.8504 3.63548 86.6297 3.33173 87.5363 3.33173C88.452 3.33173 89.2314 3.63548 89.8743 4.24299C90.5256 4.84169 90.8512 5.56366 90.8512 6.40889C90.8512 7.26292 90.5256 7.99369 89.8743 8.60124C89.2314 9.19992 88.452 9.49926 87.5363 9.49926ZM99.8405 20.5797V32.1488H93.3818V11.8632H99.5231V15.5875H99.7479C100.197 14.3461 100.963 13.3732 102.045 12.6688C103.129 11.9557 104.418 11.5991 105.915 11.5991C107.341 11.5991 108.578 11.9205 109.626 12.5632C110.683 13.1971 111.502 14.0864 112.083 15.231C112.673 16.3668 112.964 17.6962 112.955 19.2194V32.1488H106.497V20.4873C106.505 19.3602 106.219 18.4798 105.638 17.8459C105.065 17.212 104.269 16.895 103.247 16.895C102.569 16.895 101.971 17.0447 101.451 17.344C100.94 17.6346 100.545 18.0528 100.263 18.5987C99.9901 19.1445 99.8487 19.8049 99.8405 20.5797ZM126.916 11.8632V16.6177H114.118V11.8632H126.916ZM116.799 7.00319H123.257V25.7699C123.257 26.1661 123.319 26.4875 123.442 26.734C123.574 26.9717 123.764 27.1434 124.01 27.2491C124.256 27.3459 124.551 27.3944 124.895 27.3944C125.141 27.3944 125.401 27.3723 125.674 27.3283C125.955 27.2755 126.167 27.2315 126.308 27.1963L127.285 31.8582C126.977 31.9463 126.541 32.0563 125.978 32.1883C125.423 32.3204 124.759 32.404 123.983 32.4393C122.469 32.5097 121.17 32.3336 120.088 31.9111C119.013 31.4796 118.19 30.8105 117.618 29.9036C117.055 28.9968 116.782 27.8566 116.799 26.4831V7.00319ZM135.616 5.10143V32.1488H129.159V5.10143H135.616ZM138.24 32.1488V11.8632H144.697V32.1488H138.24ZM141.475 9.49926C140.569 9.49926 139.789 9.19992 139.138 8.60124C138.486 7.99369 138.16 7.26292 138.16 6.40889C138.16 5.56366 138.486 4.84169 139.138 4.24299C139.789 3.63548 140.569 3.33173 141.475 3.33173C142.391 3.33173 143.17 3.63548 143.813 4.24299C144.464 4.84169 144.79 5.56366 144.79 6.40889C144.79 7.26292 144.464 7.99369 143.813 8.60124C143.17 9.19992 142.391 9.49926 141.475 9.49926ZM158.85 11.8632V16.6177H145.802V11.8632H158.85ZM148.522 32.1488V10.8331C148.522 9.26595 148.817 7.96728 149.407 6.93716C149.997 5.89823 150.817 5.12344 151.864 4.61278C152.912 4.09331 154.122 3.83358 155.496 3.83358C156.394 3.83358 157.239 3.90402 158.031 4.04489C158.833 4.17696 159.427 4.29582 159.814 4.40147L158.784 9.1295C158.546 9.05025 158.256 8.98421 157.912 8.9314C157.578 8.87851 157.261 8.85215 156.962 8.85215C156.204 8.85215 155.685 9.01942 155.403 9.35397C155.121 9.68859 154.981 10.1464 154.981 10.7275V32.1488H148.522ZM164.418 39.7558C163.644 39.7558 162.912 39.6942 162.226 39.5709C161.54 39.4564 160.95 39.3024 160.456 39.1087L161.883 34.4203C162.517 34.6317 163.089 34.7549 163.599 34.7901C164.119 34.8253 164.564 34.7417 164.933 34.5392C165.312 34.3455 165.602 33.9977 165.805 33.4959L166.056 32.8883L158.845 11.8632H165.607L169.345 26.3378H169.555L173.346 11.8632H180.147L172.501 34.0902C172.131 35.1995 171.607 36.1768 170.929 37.0221C170.26 37.876 169.393 38.5452 168.327 39.0294C167.271 39.5137 165.968 39.7558 164.418 39.7558Z" fill="white"></path><mask id="mask1_1_52" style="mask-type:luminance" maskUnits="userSpaceOnUse" x="0" y="0" width="40" height="40"><path d="M39.4215 0.661163H0.578491V39.5041H39.4215V0.661163Z" fill="white"></path></mask><g mask="url(#mask1_1_52)"><path d="M10.8126 14.834C10.8398 11.135 12.3066 7.59211 14.9023 4.95657H14.8976L4.87654 14.9775H4.88132C4.84402 15.0069 4.80885 15.0388 4.77609 15.0732C2.339 17.5071 0.861431 20.7383 0.614533 24.1738C0.367637 27.6092 1.36799 31.0185 3.43199 33.7759L13.5534 23.6545L13.6586 23.554C11.7722 21.0418 10.7714 17.9754 10.8126 14.834Z" fill="#8F8F8F"></path><path d="M35.1451 25.2042C33.2272 27.0838 30.8197 28.3867 28.197 28.9644C25.5745 29.542 22.8423 29.3711 20.3122 28.4712C18.9631 27.9923 17.6953 27.31 16.5525 26.4479L16.4473 26.5531L6.32587 36.6698C9.08439 38.7286 12.4917 39.7258 15.925 39.4789C19.3584 39.2322 22.588 37.7579 25.0237 35.3256L25.1241 35.2252L35.1451 25.2042Z" fill="#8F8F8F"></path><path d="M39.4405 14.9775V1.32233C39.4405 0.95718 39.1445 0.66117 38.7794 0.66117H25.1242C23.2439 0.659286 21.3819 1.02891 19.6449 1.74881C17.908 2.46871 16.3304 3.52469 15.0028 4.85611L14.9023 4.95656C13.1524 6.73312 11.9003 8.9386 11.2718 11.3518C12.4096 11.0572 13.5788 10.9014 14.754 10.8879C17.8955 10.8508 20.961 11.8531 23.4739 13.7387C25.7324 15.4229 27.4417 17.738 28.3864 20.3922C29.3491 23.105 29.4758 26.0444 28.7499 28.8299C31.1635 28.2025 33.3693 26.9503 35.1452 25.1994L35.2456 25.1037C36.5776 23.7755 37.6339 22.1972 38.3539 20.4593C39.0738 18.7216 39.4431 16.8586 39.4405 14.9775Z" fill="white"></path></g></g></svg>